<svg id="visual" viewBox="0 0 900 450" width="900" height="450" xmlns="http://www.w3.org/2000/svg" xmlns:xlink="http://www.w3.org/1999/xlink" version="1.1"><rect x="0" y="0" width="900" height="450" fill="#3a3a3a"></rect><path d="M0 321L9.3 328.3C18.7 335.7 37.3 350.3 56.2 352.8C75 355.3 94 345.7 112.8 339.8C131.7 334 150.3 332 169 337C187.7 342 206.3 354 225 356C243.7 358 262.3 350 281.2 342.5C300 335 319 328 337.8 331C356.7 334 375.3 347 394 350.8C412.7 354.7 431.3 349.3 450 344.3C468.7 339.3 487.3 334.7 506.2 342.8C525 351 544 372 562.8 379.3C581.7 386.7 600.3 380.3 619 373.8C637.7 367.3 656.3 360.7 675 354.8C693.7 349 712.3 344 731.2 349C750 354 769 369 787.8 373C806.7 377 825.3 370 844 363.2C862.7 356.3 881.3 349.7 890.7 346.3L900 343L900 451L890.7 451C881.3 451 862.7 451 844 451C825.3 451 806.7 451 787.8 451C769 451 750 451 731.2 451C712.3 451 693.7 451 675 451C656.3 451 637.7 451 619 451C600.3 451 581.7 451 562.8 451C544 451 525 451 506.2 451C487.3 451 468.7 451 450 451C431.3 451 412.7 451 394 451C375.3 451 356.7 451 337.8 451C319 451 300 451 281.2 451C262.3 451 243.7 451 225 451C206.3 451 187.7 451 169 451C150.3 451 131.7 451 112.8 451C94 451 75 451 56.2 451C37.3 451 18.7 451 9.3 451L0 451Z" fill="#ffffff"></path><path d="M0 339L9.3 342.5C18.7 346 37.3 353 56.2 355.3C75 357.7 94 355.3 112.8 360.5C131.7 365.7 150.3 378.3 169 379.7C187.7 381 206.3 371 225 370.2C243.7 369.3 262.3 377.7 281.2 378C300 378.3 319 370.7 337.8 370.8C356.7 371 375.3 379 394 379.3C412.7 379.7 431.3 372.3 450 373.2C468.7 374 487.3 383 506.2 381.8C525 380.7 544 369.3 562.8 363.2C581.7 357 600.3 356 619 355C637.7 354 656.3 353 675 358.3C693.7 363.7 712.3 375.3 731.2 374.3C750 373.3 769 359.7 787.8 356C806.7 352.3 825.3 358.7 844 366.5C862.7 374.3 881.3 383.7 890.7 388.3L900 393L900 451L890.7 451C881.3 451 862.7 451 844 451C825.3 451 806.7 451 787.8 451C769 451 750 451 731.2 451C712.3 451 693.7 451 675 451C656.3 451 637.7 451 619 451C600.3 451 581.7 451 562.8 451C544 451 525 451 506.2 451C487.3 451 468.7 451 450 451C431.3 451 412.7 451 394 451C375.3 451 356.7 451 337.8 451C319 451 300 451 281.2 451C262.3 451 243.7 451 225 451C206.3 451 187.7 451 169 451C150.3 451 131.7 451 112.8 451C94 451 75 451 56.2 451C37.3 451 18.7 451 9.3 451L0 451Z" fill="#dbd5ea"></path><path d="M0 366L9.3 367.2C18.7 368.3 37.3 370.7 56.2 368.3C75 366 94 359 112.8 363C131.7 367 150.3 382 169 384.7C187.7 387.3 206.3 377.7 225 374.7C243.7 371.7 262.3 375.3 281.2 376.7C300 378 319 377 337.8 381.8C356.7 386.7 375.3 397.3 394 399.3C412.7 401.3 431.3 394.7 450 392.3C468.7 390 487.3 392 506.2 388.8C525 385.7 544 377.3 562.8 378.8C581.7 380.3 600.3 391.7 619 396.8C637.7 402 656.3 401 675 396.5C693.7 392 712.3 384 731.2 379.3C750 374.7 769 373.3 787.8 378.5C806.7 383.7 825.3 395.3 844 401.7C862.7 408 881.3 409 890.7 409.5L900 410L900 451L890.7 451C881.3 451 862.7 451 844 451C825.3 451 806.7 451 787.8 451C769 451 750 451 731.2 451C712.3 451 693.7 451 675 451C656.3 451 637.7 451 619 451C600.3 451 581.7 451 562.8 451C544 451 525 451 506.2 451C487.3 451 468.7 451 450 451C431.3 451 412.7 451 394 451C375.3 451 356.7 451 337.8 451C319 451 300 451 281.2 451C262.3 451 243.7 451 225 451C206.3 451 187.7 451 169 451C150.3 451 131.7 451 112.8 451C94 451 75 451 56.2 451C37.3 451 18.7 451 9.3 451L0 451Z" fill="#b6add5"></path><path d="M0 407L9.3 401.8C18.7 396.7 37.3 386.3 56.2 387.2C75 388 94 400 112.8 405.5C131.7 411 150.3 410 169 409C187.7 408 206.3 407 225 403.7C243.7 400.3 262.3 394.7 281.2 395.7C300 396.7 319 404.3 337.8 404.3C356.7 404.3 375.3 396.7 394 389.3C412.7 382 431.3 375 450 377.2C468.7 379.3 487.3 390.7 506.2 397.2C525 403.7 544 405.3 562.8 400.3C581.7 395.3 600.3 383.7 619 380.5C637.7 377.3 656.3 382.7 675 390.2C693.7 397.7 712.3 407.3 731.2 410.3C750 413.3 769 409.7 787.8 401.5C806.7 393.3 825.3 380.7 844 376.5C862.7 372.3 881.3 376.7 890.7 378.8L900 381L900 451L890.7 451C881.3 451 862.7 451 844 451C825.3 451 806.7 451 787.8 451C769 451 750 451 731.2 451C712.3 451 693.7 451 675 451C656.3 451 637.7 451 619 451C600.3 451 581.7 451 562.8 451C544 451 525 451 506.2 451C487.3 451 468.7 451 450 451C431.3 451 412.7 451 394 451C375.3 451 356.7 451 337.8 451C319 451 300 451 281.2 451C262.3 451 243.7 451 225 451C206.3 451 187.7 451 169 451C150.3 451 131.7 451 112.8 451C94 451 75 451 56.2 451C37.3 451 18.7 451 9.3 451L0 451Z" fill="#9286c0"></path><path d="M0 388L9.3 391.5C18.7 395 37.3 402 56.2 402.2C75 402.3 94 395.7 112.8 397C131.7 398.3 150.3 407.7 169 412.7C187.7 417.7 206.3 418.3 225 419.8C243.7 421.3 262.3 423.7 281.2 421C300 418.3 319 410.7 337.8 409.2C356.7 407.7 375.3 412.3 394 411.3C412.7 410.3 431.3 403.7 450 403.3C468.7 403 487.3 409 506.2 408C525 407 544 399 562.8 400.2C581.7 401.3 600.3 411.7 619 413.7C637.7 415.7 656.3 409.3 675 406C693.7 402.7 712.3 402.3 731.2 402C750 401.7 769 401.3 787.8 398.5C806.7 395.7 825.3 390.3 844 391.3C862.7 392.3 881.3 399.7 890.7 403.3L900 407L900 451L890.7 451C881.3 451 862.7 451 844 451C825.3 451 806.7 451 787.8 451C769 451 750 451 731.2 451C712.3 451 693.7 451 675 451C656.3 451 637.7 451 619 451C600.3 451 581.7 451 562.8 451C544 451 525 451 506.2 451C487.3 451 468.7 451 450 451C431.3 451 412.7 451 394 451C375.3 451 356.7 451 337.8 451C319 451 300 451 281.2 451C262.3 451 243.7 451 225 451C206.3 451 187.7 451 169 451C150.3 451 131.7 451 112.8 451C94 451 75 451 56.2 451C37.3 451 18.7 451 9.3 451L0 451Z" fill="#6d61ab"></path><path d="M0 428L9.3 429.5C18.7 431 37.3 434 56.2 430.2C75 426.3 94 415.7 112.8 414.7C131.7 413.7 150.3 422.3 169 425.3C187.7 428.3 206.3 425.7 225 425.5C243.7 425.3 262.3 427.7 281.2 427.8C300 428 319 426 337.8 422.7C356.7 419.3 375.3 414.7 394 416.8C412.7 419 431.3 428 450 430.3C468.7 432.7 487.3 428.3 506.2 424.5C525 420.7 544 417.3 562.8 413.8C581.7 410.3 600.3 406.7 619 405.8C637.7 405 656.3 407 675 411C693.7 415 712.3 421 731.2 425C750 429 769 431 787.8 431.8C806.7 432.7 825.3 432.3 844 433.2C862.7 434 881.3 436 890.7 437L900 438L900 451L890.7 451C881.3 451 862.7 451 844 451C825.3 451 806.7 451 787.8 451C769 451 750 451 731.2 451C712.3 451 693.7 451 675 451C656.3 451 637.7 451 619 451C600.3 451 581.7 451 562.8 451C544 451 525 451 506.2 451C487.3 451 468.7 451 450 451C431.3 451 412.7 451 394 451C375.3 451 356.7 451 337.8 451C319 451 300 451 281.2 451C262.3 451 243.7 451 225 451C206.3 451 187.7 451 169 451C150.3 451 131.7 451 112.8 451C94 451 75 451 56.2 451C37.3 451 18.7 451 9.3 451L0 451Z" fill="#443e96"></path><path d="M0 426L9.3 427.2C18.7 428.3 37.3 430.7 56.2 429.3C75 428 94 423 112.8 422.5C131.7 422 150.3 426 169 425.8C187.7 425.7 206.3 421.3 225 420.2C243.7 419 262.3 421 281.2 421.3C300 421.7 319 420.3 337.8 423.5C356.7 426.7 375.3 434.3 394 437.7C412.7 441 431.3 440 450 437C468.7 434 487.3 429 506.2 426.2C525 423.3 544 422.7 562.8 422C581.7 421.3 600.3 420.7 619 424.5C637.7 428.3 656.3 436.7 675 436.3C693.7 436 712.3 427 731.2 423.8C750 420.7 769 423.3 787.8 424.7C806.7 426 825.3 426 844 427.5C862.7 429 881.3 432 890.7 433.5L900 435L900 451L890.7 451C881.3 451 862.7 451 844 451C825.3 451 806.7 451 787.8 451C769 451 750 451 731.2 451C712.3 451 693.7 451 675 451C656.3 451 637.7 451 619 451C600.3 451 581.7 451 562.8 451C544 451 525 451 506.2 451C487.3 451 468.7 451 450 451C431.3 451 412.7 451 394 451C375.3 451 356.7 451 337.8 451C319 451 300 451 281.2 451C262.3 451 243.7 451 225 451C206.3 451 187.7 451 169 451C150.3 451 131.7 451 112.8 451C94 451 75 451 56.2 451C37.3 451 18.7 451 9.3 451L0 451Z" fill="#001d81"></path></svg>