<svg id="visual" viewBox="0 0 900 450" width="900" height="450" xmlns="http://www.w3.org/2000/svg" xmlns:xlink="http://www.w3.org/1999/xlink" version="1.1"><rect x="0" y="0" width="900" height="450" fill="#d0cdcd"></rect><path d="M0 156L9.3 176.5C18.7 197 37.3 238 56.2 245.7C75 253.3 94 227.7 112.8 215.2C131.7 202.7 150.3 203.3 169 198C187.7 192.7 206.3 181.3 225 186C243.7 190.7 262.3 211.3 281.2 210.8C300 210.3 319 188.7 337.8 176.3C356.7 164 375.3 161 394 171.3C412.7 181.7 431.3 205.3 450 230C468.7 254.7 487.3 280.3 506.2 266.7C525 253 544 200 562.8 185.8C581.7 171.7 600.3 196.3 619 204.7C637.7 213 656.3 205 675 211.5C693.7 218 712.3 239 731.2 255.7C750 272.3 769 284.7 787.8 287.3C806.7 290 825.3 283 844 265.3C862.7 247.7 881.3 219.3 890.7 205.2L900 191L900 451L890.7 451C881.3 451 862.7 451 844 451C825.3 451 806.7 451 787.8 451C769 451 750 451 731.2 451C712.3 451 693.7 451 675 451C656.3 451 637.7 451 619 451C600.3 451 581.7 451 562.8 451C544 451 525 451 506.2 451C487.3 451 468.7 451 450 451C431.3 451 412.7 451 394 451C375.3 451 356.7 451 337.8 451C319 451 300 451 281.2 451C262.3 451 243.7 451 225 451C206.3 451 187.7 451 169 451C150.3 451 131.7 451 112.8 451C94 451 75 451 56.2 451C37.3 451 18.7 451 9.3 451L0 451Z" fill="#ffffff"></path><path d="M0 207L9.3 207C18.7 207 37.3 207 56.2 209.2C75 211.3 94 215.7 112.8 216.3C131.7 217 150.3 214 169 216C187.7 218 206.3 225 225 241.2C243.7 257.3 262.3 282.7 281.2 292.8C300 303 319 298 337.8 299C356.7 300 375.3 307 394 289.7C412.7 272.3 431.3 230.7 450 231.5C468.7 232.3 487.3 275.7 506.2 282.2C525 288.7 544 258.3 562.8 254C581.7 249.7 600.3 271.3 619 272.5C637.7 273.7 656.3 254.3 675 251.7C693.7 249 712.3 263 731.2 259.3C750 255.7 769 234.3 787.8 240C806.7 245.7 825.3 278.3 844 276.3C862.7 274.3 881.3 237.7 890.7 219.3L900 201L900 451L890.7 451C881.3 451 862.7 451 844 451C825.3 451 806.7 451 787.8 451C769 451 750 451 731.2 451C712.3 451 693.7 451 675 451C656.3 451 637.7 451 619 451C600.3 451 581.7 451 562.8 451C544 451 525 451 506.2 451C487.3 451 468.7 451 450 451C431.3 451 412.7 451 394 451C375.3 451 356.7 451 337.8 451C319 451 300 451 281.2 451C262.3 451 243.7 451 225 451C206.3 451 187.7 451 169 451C150.3 451 131.7 451 112.8 451C94 451 75 451 56.2 451C37.3 451 18.7 451 9.3 451L0 451Z" fill="#dbd5ea"></path><path d="M0 341L9.3 329.5C18.7 318 37.3 295 56.2 296.2C75 297.3 94 322.7 112.8 328.3C131.7 334 150.3 320 169 303.7C187.7 287.3 206.3 268.7 225 274.2C243.7 279.7 262.3 309.3 281.2 308C300 306.7 319 274.3 337.8 259.5C356.7 244.7 375.3 247.3 394 250C412.7 252.7 431.3 255.3 450 253.3C468.7 251.3 487.3 244.7 506.2 248.2C525 251.7 544 265.3 562.8 282.5C581.7 299.7 600.3 320.3 619 326.5C637.7 332.7 656.3 324.3 675 316.5C693.7 308.7 712.3 301.3 731.2 301C750 300.7 769 307.3 787.8 304.7C806.7 302 825.3 290 844 276.3C862.7 262.7 881.3 247.3 890.7 239.7L900 232L900 451L890.7 451C881.3 451 862.7 451 844 451C825.3 451 806.7 451 787.8 451C769 451 750 451 731.2 451C712.3 451 693.7 451 675 451C656.3 451 637.7 451 619 451C600.3 451 581.7 451 562.8 451C544 451 525 451 506.2 451C487.3 451 468.7 451 450 451C431.3 451 412.7 451 394 451C375.3 451 356.7 451 337.8 451C319 451 300 451 281.2 451C262.3 451 243.7 451 225 451C206.3 451 187.7 451 169 451C150.3 451 131.7 451 112.8 451C94 451 75 451 56.2 451C37.3 451 18.7 451 9.3 451L0 451Z" fill="#b6add5"></path><path d="M0 310L9.3 307C18.7 304 37.3 298 56.2 290.8C75 283.7 94 275.3 112.8 279.3C131.7 283.3 150.3 299.7 169 298.8C187.7 298 206.3 280 225 287.8C243.7 295.7 262.3 329.3 281.2 345.2C300 361 319 359 337.8 348.7C356.7 338.3 375.3 319.7 394 317C412.7 314.3 431.3 327.7 450 322.2C468.7 316.7 487.3 292.3 506.2 280.8C525 269.3 544 270.7 562.8 287C581.7 303.3 600.3 334.7 619 337.3C637.7 340 656.3 314 675 315.7C693.7 317.3 712.3 346.7 731.2 353.8C750 361 769 346 787.8 331.3C806.7 316.7 825.3 302.3 844 304C862.7 305.7 881.3 323.3 890.7 332.2L900 341L900 451L890.7 451C881.3 451 862.7 451 844 451C825.3 451 806.7 451 787.8 451C769 451 750 451 731.2 451C712.3 451 693.7 451 675 451C656.3 451 637.7 451 619 451C600.3 451 581.7 451 562.8 451C544 451 525 451 506.2 451C487.3 451 468.7 451 450 451C431.3 451 412.7 451 394 451C375.3 451 356.7 451 337.8 451C319 451 300 451 281.2 451C262.3 451 243.7 451 225 451C206.3 451 187.7 451 169 451C150.3 451 131.7 451 112.8 451C94 451 75 451 56.2 451C37.3 451 18.7 451 9.3 451L0 451Z" fill="#9286c0"></path><path d="M0 301L9.3 317.8C18.7 334.7 37.3 368.3 56.2 384.2C75 400 94 398 112.8 382.7C131.7 367.3 150.3 338.7 169 338.2C187.7 337.7 206.3 365.3 225 380.7C243.7 396 262.3 399 281.2 386.3C300 373.7 319 345.3 337.8 338.7C356.7 332 375.3 347 394 355.8C412.7 364.7 431.3 367.3 450 356.7C468.7 346 487.3 322 506.2 320.2C525 318.3 544 338.7 562.8 350.7C581.7 362.7 600.3 366.3 619 365.7C637.7 365 656.3 360 675 354.7C693.7 349.3 712.3 343.7 731.2 347.8C750 352 769 366 787.8 365.3C806.7 364.7 825.3 349.3 844 341C862.7 332.7 881.3 331.3 890.7 330.7L900 330L900 451L890.7 451C881.3 451 862.7 451 844 451C825.3 451 806.7 451 787.8 451C769 451 750 451 731.2 451C712.3 451 693.7 451 675 451C656.3 451 637.7 451 619 451C600.3 451 581.7 451 562.8 451C544 451 525 451 506.2 451C487.3 451 468.7 451 450 451C431.3 451 412.7 451 394 451C375.3 451 356.7 451 337.8 451C319 451 300 451 281.2 451C262.3 451 243.7 451 225 451C206.3 451 187.7 451 169 451C150.3 451 131.7 451 112.8 451C94 451 75 451 56.2 451C37.3 451 18.7 451 9.3 451L0 451Z" fill="#6d61ab"></path><path d="M0 340L9.3 339.8C18.7 339.7 37.3 339.3 56.2 339.5C75 339.7 94 340.3 112.8 352C131.7 363.7 150.3 386.3 169 400.2C187.7 414 206.3 419 225 412.2C243.7 405.3 262.3 386.7 281.2 372.5C300 358.3 319 348.7 337.8 348C356.7 347.3 375.3 355.7 394 366.5C412.7 377.3 431.3 390.7 450 396.5C468.7 402.3 487.3 400.7 506.2 397C525 393.3 544 387.7 562.8 381C581.7 374.3 600.3 366.7 619 363.8C637.7 361 656.3 363 675 372C693.7 381 712.3 397 731.2 397.8C750 398.7 769 384.3 787.8 384.2C806.7 384 825.3 398 844 397.3C862.7 396.7 881.3 381.3 890.7 373.7L900 366L900 451L890.7 451C881.3 451 862.7 451 844 451C825.3 451 806.7 451 787.8 451C769 451 750 451 731.2 451C712.3 451 693.7 451 675 451C656.3 451 637.7 451 619 451C600.3 451 581.7 451 562.8 451C544 451 525 451 506.2 451C487.3 451 468.7 451 450 451C431.3 451 412.7 451 394 451C375.3 451 356.7 451 337.8 451C319 451 300 451 281.2 451C262.3 451 243.7 451 225 451C206.3 451 187.7 451 169 451C150.3 451 131.7 451 112.8 451C94 451 75 451 56.2 451C37.3 451 18.7 451 9.3 451L0 451Z" fill="#443e96"></path><path d="M0 409L9.3 405.2C18.7 401.3 37.3 393.7 56.2 399.5C75 405.3 94 424.7 112.8 429.5C131.7 434.3 150.3 424.7 169 416C187.7 407.3 206.3 399.7 225 394.3C243.7 389 262.3 386 281.2 383.8C300 381.7 319 380.3 337.8 385.2C356.7 390 375.3 401 394 411.8C412.7 422.7 431.3 433.3 450 435.5C468.7 437.7 487.3 431.3 506.2 428.7C525 426 544 427 562.8 426.5C581.7 426 600.3 424 619 423.3C637.7 422.7 656.3 423.3 675 420.8C693.7 418.3 712.3 412.7 731.2 414.8C750 417 769 427 787.8 426C806.7 425 825.3 413 844 409.5C862.7 406 881.3 411 890.7 413.5L900 416L900 451L890.7 451C881.3 451 862.7 451 844 451C825.3 451 806.7 451 787.8 451C769 451 750 451 731.2 451C712.3 451 693.7 451 675 451C656.3 451 637.7 451 619 451C600.3 451 581.7 451 562.8 451C544 451 525 451 506.2 451C487.3 451 468.7 451 450 451C431.3 451 412.7 451 394 451C375.3 451 356.7 451 337.8 451C319 451 300 451 281.2 451C262.3 451 243.7 451 225 451C206.3 451 187.7 451 169 451C150.3 451 131.7 451 112.8 451C94 451 75 451 56.2 451C37.3 451 18.7 451 9.3 451L0 451Z" fill="#001d81"></path></svg>