<svg id="visual" viewBox="0 0 960 540" width="960" height="540" xmlns="http://www.w3.org/2000/svg" xmlns:xlink="http://www.w3.org/1999/xlink" version="1.1"><rect width="960" height="540" fill="#3a3a3a"></rect><g><g transform="translate(747 456)"><path d="M0 -87L82.7 -26.9L51.1 70.4L-51.1 70.4L-82.7 -26.9Z" fill="none" stroke="#0cb2ff" stroke-width="2"></path></g><g transform="translate(60 95)"><path d="M0 -51L48.5 -15.8L30 41.3L-30 41.3L-48.5 -15.8Z" fill="none" stroke="#0cb2ff" stroke-width="2"></path></g><g transform="translate(32 476)"><path d="M0 -62L59 -19.2L36.4 50.2L-36.4 50.2L-59 -19.2Z" fill="none" stroke="#0cb2ff" stroke-width="2"></path></g><g transform="translate(614 280)"><path d="M0 -49L46.6 -15.1L28.8 39.6L-28.8 39.6L-46.6 -15.1Z" fill="none" stroke="#0cb2ff" stroke-width="2"></path></g><g transform="translate(496 74)"><path d="M0 -44L41.8 -13.6L25.9 35.6L-25.9 35.6L-41.8 -13.6Z" fill="none" stroke="#0cb2ff" stroke-width="2"></path></g><g transform="translate(722 61)"><path d="M0 -47L44.7 -14.5L27.6 38L-27.6 38L-44.7 -14.5Z" fill="none" stroke="#0cb2ff" stroke-width="2"></path></g><g transform="translate(923 138)"><path d="M0 -48L45.7 -14.8L28.2 38.8L-28.2 38.8L-45.7 -14.8Z" fill="none" stroke="#0cb2ff" stroke-width="2"></path></g><g transform="translate(166 297)"><path d="M0 -60L57.1 -18.5L35.3 48.5L-35.3 48.5L-57.1 -18.5Z" fill="none" stroke="#0cb2ff" stroke-width="2"></path></g></g></svg>