<svg id="visual" viewBox="0 0 900 600" width="900" height="600" xmlns="http://www.w3.org/2000/svg" xmlns:xlink="http://www.w3.org/1999/xlink" version="1.1"><rect width="900" height="600" fill="#a8cbff"></rect><g><g transform="translate(505 318)"><path d="M0 -88.8L84.4 -27.4L52.2 71.8L-52.2 71.8L-84.4 -27.4Z" fill="none" stroke="#dff5ff" stroke-width="2"></path></g><g transform="translate(665 586)"><path d="M0 -60L57.1 -18.5L35.3 48.5L-35.3 48.5L-57.1 -18.5Z" fill="none" stroke="#dff5ff" stroke-width="2"></path></g><g transform="translate(809 243)"><path d="M0 -87L82.7 -26.9L51.1 70.4L-51.1 70.4L-82.7 -26.9Z" fill="none" stroke="#dff5ff" stroke-width="2"></path></g><g transform="translate(132 317)"><path d="M0 -65L61.8 -20.1L38.2 52.6L-38.2 52.6L-61.8 -20.1Z" fill="none" stroke="#dff5ff" stroke-width="2"></path></g><g transform="translate(487 69)"><path d="M0 -45L42.8 -13.9L26.5 36.4L-26.5 36.4L-42.8 -13.9Z" fill="none" stroke="#dff5ff" stroke-width="2"></path></g><g transform="translate(353 541)"><path d="M0 -46L43.7 -14.2L27 37.2L-27 37.2L-43.7 -14.2Z" fill="none" stroke="#dff5ff" stroke-width="2"></path></g><g transform="translate(867 9)"><path d="M0 -86L81.8 -26.6L50.5 69.6L-50.5 69.6L-81.8 -26.6Z" fill="none" stroke="#dff5ff" stroke-width="2"></path></g><g transform="translate(307 263)"><path d="M0 -84L79.9 -26L49.4 68L-49.4 68L-79.9 -26Z" fill="none" stroke="#dff5ff" stroke-width="2"></path></g></g></svg>