<svg id="visual" viewBox="0 0 900 600" width="900" height="600" xmlns="http://www.w3.org/2000/svg" xmlns:xlink="http://www.w3.org/1999/xlink" version="1.1"><rect x="0" y="0" width="900" height="600" fill="#ffffff"></rect><path d="M286 0L263.5 16.7C241 33.3 196 66.7 196.2 100C196.3 133.3 241.7 166.7 247.3 200C253 233.3 219 266.7 208.2 300C197.3 333.3 209.7 366.7 227.5 400C245.3 433.3 268.7 466.7 253.5 500C238.3 533.3 184.7 566.7 157.8 583.3L131 600L0 600L0 583.3C0 566.7 0 533.3 0 500C0 466.7 0 433.3 0 400C0 366.7 0 333.3 0 300C0 266.7 0 233.3 0 200C0 166.7 0 133.3 0 100C0 66.7 0 33.3 0 16.7L0 0Z" fill="#0066FF" stroke-linecap="round" stroke-linejoin="miter"></path></svg>