<svg id="visual" viewBox="0 0 900 600" width="900" height="600" xmlns="http://www.w3.org/2000/svg" xmlns:xlink="http://www.w3.org/1999/xlink" version="1.1"><rect x="0" y="0" width="900" height="600" fill="#ffffff"></rect><path d="M0 41L5.2 40C10.3 39 20.7 37 31 33C41.3 29 51.7 23 62 22.7C72.3 22.3 82.7 27.7 93 30.7C103.3 33.7 113.7 34.3 124 34.3C134.3 34.3 144.7 33.7 155 31.5C165.3 29.3 175.7 25.7 186 24.2C196.3 22.7 206.7 23.3 217 22.8C227.3 22.3 237.7 20.7 248 20.8C258.3 21 268.7 23 279 25.7C289.3 28.3 299.7 31.7 310 33.8C320.3 36 330.7 37 341 34C351.3 31 361.7 24 372 20.7C382.3 17.3 392.7 17.7 403 20.2C413.3 22.7 423.7 27.3 434.2 27.8C444.7 28.3 455.3 24.7 465.8 23.5C476.3 22.3 486.7 23.7 497 24.3C507.3 25 517.7 25 528 26.3C538.3 27.7 548.7 30.3 559 32.7C569.3 35 579.7 37 590 37C600.3 37 610.7 35 621 31.5C631.3 28 641.7 23 652 22.2C662.3 21.3 672.7 24.7 683 25C693.3 25.3 703.7 22.7 714 23.7C724.3 24.7 734.7 29.3 745 32.5C755.3 35.7 765.7 37.3 776 38.3C786.3 39.3 796.7 39.7 807 36.7C817.3 33.7 827.7 27.3 838 25.2C848.3 23 858.7 25 869 26C879.3 27 889.7 27 894.8 27L900 27" fill="none" stroke-linecap="round" stroke-linejoin="miter" stroke="#3a3a3a" stroke-width="40"></path></svg>