<svg id="visual" viewBox="0 0 900 600" width="900" height="600" xmlns="http://www.w3.org/2000/svg" xmlns:xlink="http://www.w3.org/1999/xlink" version="1.1"><rect x="0" y="0" width="900" height="600" fill="#ffffff"></rect><path d="M252 0L268 8.3C284 16.7 316 33.3 312.5 50C309 66.7 270 83.3 264 100C258 116.7 285 133.3 291.2 150C297.3 166.7 282.7 183.3 283.2 200C283.7 216.7 299.3 233.3 312.3 250C325.3 266.7 335.7 283.3 332.8 300C330 316.7 314 333.3 290.3 350C266.7 366.7 235.3 383.3 231.8 400C228.3 416.7 252.7 433.3 259.3 450C266 466.7 255 483.3 250.8 500C246.7 516.7 249.3 533.3 265.7 550C282 566.7 312 583.3 327 591.7L342 600L0 600L0 591.7C0 583.3 0 566.7 0 550C0 533.3 0 516.7 0 500C0 483.3 0 466.7 0 450C0 433.3 0 416.7 0 400C0 383.3 0 366.7 0 350C0 333.3 0 316.7 0 300C0 283.3 0 266.7 0 250C0 233.3 0 216.7 0 200C0 183.3 0 166.7 0 150C0 133.3 0 116.7 0 100C0 83.3 0 66.7 0 50C0 33.3 0 16.7 0 8.3L0 0Z" fill="#3a3a3a" stroke-linecap="round" stroke-linejoin="miter"></path></svg>