<svg id="visual" viewBox="0 0 900 600" width="900" height="600" xmlns="http://www.w3.org/2000/svg" xmlns:xlink="http://www.w3.org/1999/xlink" version="1.1"><rect x="0" y="0" width="900" height="600" fill="#ffffff"></rect><path d="M599 0L548.3 25C497.7 50 396.3 100 332.3 150C268.3 200 241.7 250 264.3 300C287 350 359 400 374.3 450C389.7 500 348.3 550 327.7 575L307 600L0 600L0 575C0 550 0 500 0 450C0 400 0 350 0 300C0 250 0 200 0 150C0 100 0 50 0 25L0 0Z" fill="#3a3a3a" stroke-linecap="round" stroke-linejoin="miter"></path></svg>