<svg id="visual" viewBox="0 0 900 600" width="900" height="600" xmlns="http://www.w3.org/2000/svg" xmlns:xlink="http://www.w3.org/1999/xlink" version="1.1"><rect x="0" y="0" width="900" height="600" fill="#ffffff"></rect><path d="M389 0L377 14.3C365 28.7 341 57.3 350.8 85.8C360.7 114.3 404.3 142.7 378.2 171.2C352 199.7 256 228.3 223.8 257C191.7 285.7 223.3 314.3 266.3 343C309.3 371.7 363.7 400.3 398 428.8C432.3 457.3 446.7 485.7 420.2 514.2C393.7 542.7 326.3 571.3 292.7 585.7L259 600L0 600L0 585.7C0 571.3 0 542.7 0 514.2C0 485.7 0 457.3 0 428.8C0 400.3 0 371.7 0 343C0 314.3 0 285.7 0 257C0 228.3 0 199.7 0 171.2C0 142.7 0 114.3 0 85.8C0 57.3 0 28.7 0 14.3L0 0Z" fill="#0069cc" stroke-linecap="round" stroke-linejoin="miter"></path></svg>