<svg id="visual" viewBox="0 0 900 600" width="900" height="600" xmlns="http://www.w3.org/2000/svg" xmlns:xlink="http://www.w3.org/1999/xlink" version="1.1"><rect x="0" y="0" width="900" height="600" fill="#ffffff"></rect><path d="M343 0L316 16.7C289 33.3 235 66.7 235.3 100C235.7 133.3 290.3 166.7 297 200C303.7 233.3 262.3 266.7 249.2 300C236 333.3 251 366.7 272.5 400C294 433.3 322 466.7 304 500C286 533.3 222 566.7 190 583.3L158 600L0 600L0 583.3C0 566.7 0 533.3 0 500C0 466.7 0 433.3 0 400C0 366.7 0 333.3 0 300C0 266.7 0 233.3 0 200C0 166.7 0 133.3 0 100C0 66.7 0 33.3 0 16.7L0 0Z" fill="#0066FF" stroke-linecap="round" stroke-linejoin="miter"></path></svg>