<svg id="visual" viewBox="0 0 900 600" width="900" height="600" xmlns="http://www.w3.org/2000/svg" xmlns:xlink="http://www.w3.org/1999/xlink" version="1.1"><rect x="0" y="0" width="900" height="600" fill="#ffffff"></rect><path d="M276 0L259.2 10C242.3 20 208.7 40 207.3 60C206 80 237 100 238.3 120C239.7 140 211.3 160 200.7 180C190 200 197 220 207 240C217 260 230 280 241 300C252 320 261 340 257.5 360C254 380 238 400 235.2 420C232.3 440 242.7 460 249.3 480C256 500 259 520 253 540C247 560 232 580 224.5 590L217 600L0 600L0 590C0 580 0 560 0 540C0 520 0 500 0 480C0 460 0 440 0 420C0 400 0 380 0 360C0 340 0 320 0 300C0 280 0 260 0 240C0 220 0 200 0 180C0 160 0 140 0 120C0 100 0 80 0 60C0 40 0 20 0 10L0 0Z" fill="#3a3a3a" stroke-linecap="round" stroke-linejoin="miter"></path></svg>