<svg id="visual" viewBox="0 0 900 600" width="900" height="600" xmlns="http://www.w3.org/2000/svg" xmlns:xlink="http://www.w3.org/1999/xlink" version="1.1"><rect x="0" y="0" width="900" height="600" fill="#ffffff"></rect><path d="M345 0L337.7 10C330.3 20 315.7 40 302 60C288.3 80 275.7 100 262.7 120C249.7 140 236.3 160 247.5 180C258.7 200 294.3 220 294 240C293.7 260 257.3 280 244.5 300C231.7 320 242.3 340 249.2 360C256 380 259 400 268.8 420C278.7 440 295.3 460 299.7 480C304 500 296 520 294 540C292 560 296 580 298 590L300 600L0 600L0 590C0 580 0 560 0 540C0 520 0 500 0 480C0 460 0 440 0 420C0 400 0 380 0 360C0 340 0 320 0 300C0 280 0 260 0 240C0 220 0 200 0 180C0 160 0 140 0 120C0 100 0 80 0 60C0 40 0 20 0 10L0 0Z" fill="#3a3a3a" stroke-linecap="round" stroke-linejoin="miter"></path></svg>