<svg id="visual" viewBox="0 0 900 600" width="900" height="600" xmlns="http://www.w3.org/2000/svg" xmlns:xlink="http://www.w3.org/1999/xlink" version="1.1"><rect x="0" y="0" width="900" height="600" fill="#ffffff"></rect><path d="M0 89L8.8 83.8C17.7 78.7 35.3 68.3 53 68C70.7 67.7 88.3 77.3 106 84C123.7 90.7 141.3 94.3 159 92.2C176.7 90 194.3 82 212 84.7C229.7 87.3 247.3 100.7 265 96.2C282.7 91.7 300.3 69.3 318 68C335.7 66.7 353.3 86.3 371 92.3C388.7 98.3 406.3 90.7 423.8 95.2C441.3 99.7 458.7 116.3 476.2 111.2C493.7 106 511.3 79 529 69.7C546.7 60.3 564.3 68.7 582 78C599.7 87.3 617.3 97.7 635 100C652.7 102.3 670.3 96.7 688 91.3C705.7 86 723.3 81 741 80.5C758.7 80 776.3 84 794 93.3C811.7 102.7 829.3 117.3 847 119.5C864.7 121.7 882.3 111.3 891.2 106.2L900 101L900 0L891.2 0C882.3 0 864.7 0 847 0C829.3 0 811.7 0 794 0C776.3 0 758.7 0 741 0C723.3 0 705.7 0 688 0C670.3 0 652.7 0 635 0C617.3 0 599.7 0 582 0C564.3 0 546.7 0 529 0C511.3 0 493.7 0 476.2 0C458.7 0 441.3 0 423.8 0C406.3 0 388.7 0 371 0C353.3 0 335.7 0 318 0C300.3 0 282.7 0 265 0C247.3 0 229.7 0 212 0C194.3 0 176.7 0 159 0C141.3 0 123.7 0 106 0C88.3 0 70.7 0 53 0C35.3 0 17.7 0 8.8 0L0 0Z" fill="#3a3a3a" stroke-linecap="round" stroke-linejoin="miter"></path></svg>