<svg id="visual" viewBox="0 0 900 600" width="900" height="600" xmlns="http://www.w3.org/2000/svg" xmlns:xlink="http://www.w3.org/1999/xlink" version="1.1"><rect x="0" y="0" width="900" height="600" fill="#ffffff"></rect><path d="M466 0L426.5 25C387 50 308 100 258.2 150C208.3 200 187.7 250 205.5 300C223.3 350 279.7 400 291.7 450C303.7 500 271.3 550 255.2 575L239 600L0 600L0 575C0 550 0 500 0 450C0 400 0 350 0 300C0 250 0 200 0 150C0 100 0 50 0 25L0 0Z" fill="#3a3a3a" stroke-linecap="round" stroke-linejoin="miter"></path></svg>